<?xml version="1.0" encoding="UTF-8" standalone="no"?>
<!-- Created with Inkscape (http://www.inkscape.org/) -->

<svg
   xmlns:dc="http://purl.org/dc/elements/1.1/"
   xmlns:cc="http://creativecommons.org/ns#"
   xmlns:rdf="http://www.w3.org/1999/02/22-rdf-syntax-ns#"
   xmlns:svg="http://www.w3.org/2000/svg"
   xmlns="http://www.w3.org/2000/svg"
   xmlns:sodipodi="http://sodipodi.sourceforge.net/DTD/sodipodi-0.dtd"
   xmlns:inkscape="http://www.inkscape.org/namespaces/inkscape"
   width="507.47083mm"
   height="285.22083mm"
   viewBox="0 0 507.47083 285.22083"
   version="1.1"
   id="svg8"
   inkscape:version="0.92.3 (2405546, 2018-03-11)"
   sodipodi:docname="Background_About.svg">
  <defs
     id="defs2" />
  <sodipodi:namedview
     id="base"
     pagecolor="#ffffff"
     bordercolor="#666666"
     borderopacity="1.0"
     inkscape:pageopacity="0.0"
     inkscape:pageshadow="2"
     inkscape:zoom="0.5"
     inkscape:cx="634.1027"
     inkscape:cy="508.2888"
     inkscape:document-units="px"
     inkscape:current-layer="layer1"
     showgrid="false"
     showborder="false"
     inkscape:snap-midpoints="true"
     inkscape:snap-intersection-paths="true"
     inkscape:window-width="1920"
     inkscape:window-height="1017"
     inkscape:window-x="1672"
     inkscape:window-y="-8"
     inkscape:window-maximized="1"
     fit-margin-top="0"
     fit-margin-left="0"
     fit-margin-right="0"
     fit-margin-bottom="0" />
  <metadata
     id="metadata5">
    <rdf:RDF>
      <cc:Work
         rdf:about="">
        <dc:format>image/svg+xml</dc:format>
        <dc:type
           rdf:resource="http://purl.org/dc/dcmitype/StillImage" />
        <dc:title />
      </cc:Work>
    </rdf:RDF>
  </metadata>
  <g
     inkscape:label="Layer 1"
     inkscape:groupmode="layer"
     id="layer1"
     transform="translate(153.19373,78.179176)">
    <path
       style="opacity:1;fill:#eeeeee;fill-opacity:1;stroke:none;stroke-width:1.99999988;stroke-miterlimit:4;stroke-dasharray:none"
       d="M 1253.373 1078 L 1918 1078 L 1918 0 L 1239.4355 0 A 1087.8331 645.00001 0 0 0 1164.916 31.523438 A 1087.8331 645.00001 0 0 0 1083.1445 74.021484 A 1087.8331 645.00001 0 0 0 1008.9355 121.14648 A 1087.8331 645.00001 0 0 0 943.03516 172.42969 A 1087.8331 645.00001 0 0 0 886.09766 227.35742 A 1087.8331 645.00001 0 0 0 838.69141 285.38086 A 1087.8331 645.00001 0 0 0 801.29297 345.92188 A 1087.8331 645.00001 0 0 0 774.27539 408.37305 A 1087.8331 645.00001 0 0 0 757.9082 472.11133 A 1087.8331 645.00001 0 0 0 752.35352 536.5 A 1087.8331 645.00001 0 0 0 752.94141 556.9375 A 1087.8331 645.00001 0 0 0 761.94336 621.1875 A 1087.8331 645.00001 0 0 0 781.71875 684.58594 A 1087.8331 645.00001 0 0 0 812.07031 746.49805 A 1087.8331 645.00001 0 0 0 852.69336 806.30273 A 1087.8331 645.00001 0 0 0 903.18359 863.40234 A 1087.8331 645.00001 0 0 0 963.03711 917.23047 A 1087.8331 645.00001 0 0 0 1031.6543 967.24609 A 1087.8331 645.00001 0 0 0 1108.3496 1012.9492 A 1087.8331 645.00001 0 0 0 1192.3574 1053.8867 A 1087.8331 645.00001 0 0 0 1253.373 1078 z "
       id="path5459"
       transform="matrix(0.26458333,0,0,0.26458333,-153.19373,-78.179176)" />
    <path
       style="opacity:1;fill:#eeeeee;fill-opacity:1;stroke:none;stroke-width:1.99999988;stroke-miterlimit:4;stroke-dasharray:none"
       d="M 937.57617 0 L 0 0 L 0 1078 L 949.67188 1078 A 1087.8331 645.00001 0 0 1 864.16602 1041.7461 A 1087.8331 645.00001 0 0 1 782.47461 999.19531 A 1087.8331 645.00001 0 0 1 708.35352 952.01953 A 1087.8331 645.00001 0 0 1 642.54688 900.69531 A 1087.8331 645.00001 0 0 1 585.71094 845.72852 A 1087.8331 645.00001 0 0 1 538.41406 787.67578 A 1087.8331 645.00001 0 0 1 501.12695 727.11133 A 1087.8331 645.00001 0 0 1 474.22461 664.64258 A 1087.8331 645.00001 0 0 1 457.97656 600.89258 A 1087.8331 645.00001 0 0 1 452.54102 536.5 A 1087.8331 645.00001 0 0 1 455.26562 490.875 A 1087.8331 645.00001 0 0 1 468.36914 426.87109 A 1087.8331 645.00001 0 0 1 492.18359 363.96289 A 1087.8331 645.00001 0 0 1 526.4707 302.7793 A 1087.8331 645.00001 0 0 1 570.88867 243.92969 A 1087.8331 645.00001 0 0 1 624.99414 188.00586 A 1087.8331 645.00001 0 0 1 688.24609 135.5625 A 1087.8331 645.00001 0 0 1 760.00977 87.125 A 1087.8331 645.00001 0 0 1 839.57227 43.177734 A 1087.8331 645.00001 0 0 1 926.13672 4.1582031 A 1087.8331 645.00001 0 0 1 937.57617 0 z "
       id="path5457"
       transform="matrix(0.26458333,0,0,0.26458333,-153.19373,-78.179176)" />
    <path
       style="opacity:1;fill:#bcbcbc;fill-opacity:1;stroke:none;stroke-width:1.99999988;stroke-miterlimit:4;stroke-dasharray:none"
       d="M 937.57617 0 A 1087.8331 645.00001 0 0 0 926.13672 4.1582031 A 1087.8331 645.00001 0 0 0 839.57227 43.177734 A 1087.8331 645.00001 0 0 0 760.00977 87.125 A 1087.8331 645.00001 0 0 0 688.24609 135.5625 A 1087.8331 645.00001 0 0 0 624.99414 188.00586 A 1087.8331 645.00001 0 0 0 570.88867 243.92969 A 1087.8331 645.00001 0 0 0 526.4707 302.7793 A 1087.8331 645.00001 0 0 0 492.18359 363.96289 A 1087.8331 645.00001 0 0 0 468.36914 426.87109 A 1087.8331 645.00001 0 0 0 455.26562 490.875 A 1087.8331 645.00001 0 0 0 452.54102 536.5 A 1087.8331 645.00001 0 0 0 457.97656 600.89258 A 1087.8331 645.00001 0 0 0 474.22461 664.64258 A 1087.8331 645.00001 0 0 0 501.12695 727.11133 A 1087.8331 645.00001 0 0 0 538.41406 787.67578 A 1087.8331 645.00001 0 0 0 585.71094 845.72852 A 1087.8331 645.00001 0 0 0 642.54688 900.69531 A 1087.8331 645.00001 0 0 0 708.35352 952.01953 A 1087.8331 645.00001 0 0 0 782.47461 999.19531 A 1087.8331 645.00001 0 0 0 864.16602 1041.7461 A 1087.8331 645.00001 0 0 0 949.67188 1078 L 1253.373 1078 A 1087.8331 645.00001 0 0 1 1192.3574 1053.8867 A 1087.8331 645.00001 0 0 1 1108.3496 1012.9492 A 1087.8331 645.00001 0 0 1 1031.6543 967.24609 A 1087.8331 645.00001 0 0 1 963.03711 917.23047 A 1087.8331 645.00001 0 0 1 903.18359 863.40234 A 1087.8331 645.00001 0 0 1 852.69336 806.30273 A 1087.8331 645.00001 0 0 1 812.07031 746.49805 A 1087.8331 645.00001 0 0 1 781.71875 684.58594 A 1087.8331 645.00001 0 0 1 761.94336 621.1875 A 1087.8331 645.00001 0 0 1 752.94141 556.9375 A 1087.8331 645.00001 0 0 1 752.35352 536.5 A 1087.8331 645.00001 0 0 1 757.9082 472.11133 A 1087.8331 645.00001 0 0 1 774.27539 408.37305 A 1087.8331 645.00001 0 0 1 801.29297 345.92188 A 1087.8331 645.00001 0 0 1 838.69141 285.38086 A 1087.8331 645.00001 0 0 1 886.09766 227.35742 A 1087.8331 645.00001 0 0 1 943.03516 172.42969 A 1087.8331 645.00001 0 0 1 1008.9355 121.14648 A 1087.8331 645.00001 0 0 1 1083.1445 74.021484 A 1087.8331 645.00001 0 0 1 1164.916 31.523438 A 1087.8331 645.00001 0 0 1 1239.4355 0 L 937.57617 0 z "
       id="rect4317"
       transform="matrix(0.26458333,0,0,0.26458333,-153.19373,-78.179176)" />
  </g>
</svg>
