<svg width="223.98mm" height="181.24mm" version="1.1" viewBox="0 0 223.98 181.24" xmlns="http://www.w3.org/2000/svg">
 <g transform="translate(2.9247 -47.88)">
  <path d="m-2.9247 85.902 30.568-19.718 16.794-5.7551 0.84911 9.0572 2.8304 1.8869h5.7551l-0.47173-3.4908 4.1512-2.0756 11.605 4.6229 0.09435 3.7738 9.1515 0.37738 3.6795-3.2078 2.5473 0.18869 10.661-9.9063-1.5095-1.8869 6.8872-0.75476 0.18869 2.0756 5.472-0.94346-3.0191-7.5476 9.5289-4.0569-0.66042 6.4155 7.5476-0.37738 4.906-6.6985 5.5664 2.3586-1.9812 4.3399-2.17-0.75476-0.28304 1.6039 8.5854 1.8869 5.0003-4.5286 0.75476-4.0569 5.3777 5.472-2.3586 3.3964 3.7738 4.2456-0.18869 3.2078 2.0756 0.56607 2.0756-1.0378 1.7926 1.3208-0.47173 3.7738 6.3212 0.28304 0.84911-1.4152 4.1512 1.3208 4.1512-3.6795 3.7738 3.3964 0.18869 4.0569 7.0759 3.2078 4.5286-0.09434 0.94345 3.3021 2.736-1.3208 1.3208 1.9813-2.5473 1.9813 1.3208 1.8869-1.9813 0.37738 0.28304 3.3021-1.3208-0.47173-1.2265 3.1134 1.5095 1.0378-3.5144 5.4956 2.335 0.684-2.052 3.7502-1.614 0.18499-2.8186 3.9102 0.11626 4.0892 2.5473 1.3208 1.0378 4.3399 2.9454-1.6361 4.88 2.1331 4.2129-0.86893 6.5478 1.0324 1.0378 2.8304 3.7738-0.0944 4.906 8.4911 3.9625 0.56607-1.2265 3.0191-4.0569 3.3964 3.0191 5.3777 2.453-1.0378 4.2456 1.2265-0.28304 2.8304 2.3586 1.3208-2.3586 6.3212 4.3399 4.7173-3.3964 1.9813-1.2265-1.6039-9.9063 8.7742 1.6039 3.6795-3.8682 3.2078-2.2643-2.2643-0.84911 1.6982-4.1512-2.6417-2.0756 0.84911-0.18869 3.6795-3.8682 1.7926-2.5473 5.0003 1.3208 1.6039-2.8304 2.4058v3.9153l-3.0191 0.66042-2.3586 5.7551 3.1134 1.6039-2.5002 3.3493 0.61325 4.7644 2.736-0.0943 1.6039 5.991 2.0756-0.0472 1.2265 1.8869-1.1322 2.4058 2.3586 1.9813-3.3021 5.2362 1.4152 1.7926-3.3021 2.9247-2.8304-1.6039-6.3212 0.56607-2.8304 3.4908-7.8307 1.0378-2.453-7.8307-5.0003-3.5851-1.5095 1.9813-1.4152-1.7926 2.3586-2.17-3.9625-3.8682-1.4152 1.0378-6.8872-2.453-4.4342-4.8116-4.5286-3.3021-2.0756 1.6982-5.0003-0.75477 1.7926-2.3586-1.3208-3.8682 1.8869-4.3399-2.8304-3.7738-2.9247-0.47173 0.28304-2.0756 2.9247-5.2834 3.0191-8.5854-4.4342-3.1134-8.6798 9.5289 1.5095 1.3208-0.63278 4.9889-7.2565 1.3027-6.1891 3.4375-8.708-2.6284-6.1729 0.97404-2.9409-1.6362 1.0317-2.118-1.4367-1.7845 1.5486-2.1585 4.1512-1.9813-1.9813-5.6607-4.0569-0.18869 1.3208-7.359 4.1512-2.9247-3.7738-4.0569-0.09435 2.9247-1.1321 0.0944-2.5473-5.189-4.2456-4.0569-7.2646 3.1134-2.453-2.2643-6.8872-0.0944-1.7926 3.9625-2.9247-5.2834 1.1322-3.8682-0.84911-4.6229-3.5851-3.3964-6.1325 0.0943 1.6982-2.5473-2.5473-1.2265-6.0381 3.5851-5.5664-3.1134v-5.7551l-2.0756-5.189 1.5095-2.3586-6.6042-9.9063-7.5476 1.2265-6.7929 6.7929-6.3212-2.17-4.4342-8.0194-5.2834-0.84911-1.7926-9.9063 1.9813-1.8869-1.2265-3.9625-2.1699-1.6039z" fill="#0d90bf"/>
  <path d="m74.878 118.43 3.3356-0.20013-1.0007-2.1348 0.86726-1.4677 7.0048-1.2675v-4.6699l-1.6678-1.0674 3.5358-4.0694-0.33356-3.1355 2.4684 0.73385 1.4677-1.3343-0.13342-4.6699 2.2015-0.0667 1.8679-1.4677 0.66713-3.2022 8.4725 2.4684 0.46699 1.4677 11.608 0.26685 0.5337-1.9347 10.674-2.2015 1.6011 2.0014 8.4058-2.5351 5.8707 2.0014 1.0674-0.26685v-2.4016l2.6018 0.0667 1.5344 2.0681-1.7345 1.5344-0.26685 2.0681-2.3349 0.40028-0.20014 2.6018-1.6011 1.2675 1.9347 2.9353 2.8019-0.93398 2.6018 0.66713 0.20014 3.1355-1.9347 0.0667-1.3342 5.9374 1.8012 0.13342-3.0021 6.2043 1.2675 0.60041-0.86726 2.4684-2.2015 0.40028-1.8679-1.6678 0.46698-1.6678-3.5358-2.5351-3.4023 2.2682-1.3342-2.3349-3.6025 0.66712-4.5364-4.0027-4.2029 1.6678-2.4016-1.0007v4.3363l-2.1348 1.2675-1.2675-1.9347-3.936 2.7352-1.8012-2.2682-6.8714 2.1348 0.13342 1.3342-3.4023-0.33356-0.46699 2.0014h-3.0688l-0.66712 1.0674-5.0701-3.936-3.1355 2.1348-0.93397-0.66712-1.7345 1.6678-8.4058 0.20014-1.2675-1.4677z" fill="#fff"/>
  <path d="m97.36 108.89-0.0667-3.2689 3.4023-2.8019 2.4684 0.20014 1.2675-1.0674 2.6018 2.6018-1.6011 1.401 2.6685 1.6011 0.73384 2.6018-1.2008 1.0007 1.5344 1.868-5.2703 2.4016-3.469-0.73384-1.7345-3.469-1.6678 0.20014-1.6011-1.3342 0.40028-1.2675z" fill="#0d90bf" fill-opacity=".94118"/>
  <path d="m118.01 110.47a4.0412 1.5602 0 0 1-4.0412 1.5602 4.0412 1.5602 0 0 1-4.0412-1.5602 4.0412 1.5602 0 0 1 4.0412-1.5602 4.0412 1.5602 0 0 1 4.0412 1.5602z" opacity=".05" style="paint-order:normal"/>
  <g transform="matrix(.52612 0 0 .52612 87.825 21.66)" fill="#ff6565" stroke-width="1.9007">
   <path d="m52.994 135.8c5e-6 1.8266-1.4807 4.6082-3.3073 4.6082s-3.3073-2.7816-3.3073-4.6082c1e-6 -1.8266 1.4807-3.3073 3.3073-3.3073s3.3073 1.4807 3.3073 3.3073z" style="paint-order:normal"/>
   <path transform="scale(.26458)" d="m175.29 532.69v95.871l-4.4024 7.625c-1.385 2.3989-0.56881 5.4451 1.8301 6.8301 2.3989 1.385 5.4451 0.56882 6.8301-1.8301l5-8.6602c0.39109-0.6774 0.58857-1.4061 0.64258-2.1348v-2e-3c0.0663-0.32606 0.0996-0.66552 0.0996-1.0117v-46.688h5v46.688c0 0.34624 0.0332 0.68564 0.0996 1.0117v2e-3c0.054 0.72868 0.25147 1.4573 0.64258 2.1348l5 8.6602c1.385 2.3989 4.4312 3.2151 6.8301 1.8301s3.2151-4.4312 1.8301-6.8301l-4.4023-7.625v-95.871z" style="paint-order:normal"/>
   <path transform="scale(.26458)" d="m168.29 532.69c-2.77 0-5 2.23-5 5v40c0 2.77 2.23 5 5 5 2.77 0 5-2.23 5-5v-35h5c2.77 0 5-2.23 5-5 0-2.77-2.23-5-5-5z" style="paint-order:normal"/>
   <path transform="rotate(195)" d="m-92.564-120.36c0.7329 0 1.3229 0.59002 1.3229 1.3229v6.6146c0 0.73289-0.59002 1.3229-1.3229 1.3229s-1.3229-0.59002-1.3229-1.3229v-6.6146c0-0.73289 0.59002-1.3229 1.3229-1.3229z" style="paint-order:normal"/>
   <path transform="rotate(240)" d="m-149.62-26.663c0.73289 0 1.3229 0.59002 1.3229 1.3229v6.6146c0 0.7329-0.59002 1.3229-1.3229 1.3229-0.7329 0-1.3229-0.59002-1.3229-1.3229v-6.6146c0-0.7329 0.59002-1.3229 1.3229-1.3229z" style="paint-order:normal"/>
  </g>
 </g>
</svg>
