<svg width="12.7mm" height="12.7mm" enable-background="new" version="1.1" viewBox="0 0 12.7 12.7" xmlns="http://www.w3.org/2000/svg" xmlns:xlink="http://www.w3.org/1999/xlink">
 <defs>
  <linearGradient id="linearGradient4799" x1="-408.85" x2="-577.75" y1="544.7" y2="376" gradientTransform="translate(-366.43 -58.554)" gradientUnits="userSpaceOnUse">
   <stop stop-color="#00f7ff" offset="0"/>
   <stop stop-color="#ff9cd8" stop-opacity=".7449" offset="1"/>
  </linearGradient>
  <linearGradient id="linearGradient4861" x1="-667.93" x2="-667.63" y1="587.58" y2="419.42" gradientTransform="translate(-121.47 -101.78)" gradientUnits="userSpaceOnUse">
   <stop stop-color="#00ff7b" offset="0"/>
   <stop stop-color="#ffb0ff" offset="1"/>
  </linearGradient>
  <filter id="filter4909" color-interpolation-filters="sRGB">
   <feBlend in2="BackgroundImage" mode="multiply"/>
  </filter>
  <filter id="filter985" color-interpolation-filters="sRGB">
   <feBlend in2="BackgroundImage" mode="overlay"/>
  </filter>
 </defs>
 <g transform="translate(-29.43 -179.29)" filter="url(#filter985)">
  <g transform="matrix(.092096 0 0 .092096 26.11 171.97)" stroke="#01789a" stroke-linecap="round" stroke-linejoin="round" stroke-opacity=".075758">
   <circle cx="105" cy="148.5" r="67.513" stroke-width="2.8729" style="paint-order:normal"/>
   <g transform="matrix(.45668 0 0 .45668 498.17 -34.981)" stroke-width="6.2908">
    <path d="m-932.76 317.63c-6.6544 0-12.012 5.3573-12.012 12.012s5.3573 12.011 12.012 12.011h53.507l6.906 11.962h-60.413c-6.6544 0-12.012 5.3573-12.012 12.012 0 6.6544 5.3573 12.011 12.012 12.011h74.283l6.9634 12.061h-81.246c-6.6544 0-12.012 5.3573-12.012 12.012s5.3573 12.011 12.012 12.011h95.116l6.9588 12.053h-102.07c-6.6544 0-12.012 5.3568-12.012 12.011 0 6.6544 5.3573 12.012 12.012 12.012h115.94l5.934 10.278 0.97668 1.6919h-122.86c-6.6544 0-12.012 5.3573-12.012 12.012s5.3573 12.012 12.012 12.012h143.36c0.30858 7e-3 0.61791 0 0.9276-0.0161 3e-3 -1.1e-4 5e-3 0 7e-3 0 0.16793-9e-3 0.33591-0.0214 0.50384-0.0377 0.0665-6e-3 0.13277-0.013 0.19897-0.0201 0.0944-0.0106 0.18881-0.0228 0.28318-0.0356 0.14068-0.0188 0.28054-0.04 0.41961-0.0636 0.0111-3e-3 0.0225-4e-3 0.0336-6e-3 5.183-0.89212 9.2067-5.0814 9.8511-10.347 5e-3 -0.0388 0.01-0.0774 0.0145-0.11625 0.014-0.12407 0.0254-0.24898 0.0356-0.37415 7e-3 -0.0854 0.0143-0.17074 0.0196-0.2563 6e-3 -0.0978 0.01-0.19611 0.0135-0.29456 4e-3 -0.10843 7e-3 -0.21694 8e-3 -0.32557 0-0.0396 3e-3 -0.0786 3e-3 -0.11835 0-0.049-3e-3 -0.0973-4e-3 -0.14624-3e-3 -0.10834-4e-3 -0.21659-8e-3 -0.32504-4e-3 -0.10393-0.01-0.20735-0.0161-0.31057-5e-3 -0.0814-0.0117-0.16258-0.0185-0.24392-0.0114-0.13488-0.0246-0.269-0.0403-0.40256-4e-3 -0.0384-0.01-0.0768-0.0146-0.11523-0.2299-1.806-0.85688-3.4835-1.7927-4.9439l-11.101-19.227-60.458-104.72c0-3e-3 -3e-3 -3e-3 -3e-3 -4e-3l-11.373-19.699c-2.1835-3.7819-6.0855-5.9265-10.139-6.0136-0.13491-3e-3 -0.26992-4e-3 -0.40513-3e-3h-7e-3z" fill="url(#linearGradient4799)" opacity=".8" style="paint-order:normal"/>
    <path d="m-795.33 319.37c1.816-1.1011 3.95-1.7341 6.2375-1.7342 6.6544 1e-5 12.011 5.3569 12.011 12.011l1.6e-4 22.748c-1e-5 1e-3 1.7e-4 2e-3 -2.3e-4 4e-3l4e-5 98.754 1e-4 22.751c0 6.6544-5.3573 12.012-12.012 12.012-6.6544-2e-5 -12.012-5.3573-12.012-12.012l1.8e-4 -22.751 1.5e-4 -98.755c2.6e-4 -1e-3 2.4e-4 -4e-3 6e-4 -5e-3l-2e-5 -22.746c0-4.3669 2.3069-8.1752 5.7738-10.277z" fill="url(#linearGradient4861)" opacity=".8" style="paint-order:normal"/>
   </g>
   <g transform="matrix(.45668 0 0 .45668 498.31 -34.981)" fill="#fff" stroke-width="6.2908">
    <path d="m-933.39 317.63c-6.6544 0-12.012 5.3573-12.012 12.012s5.3573 12.011 12.012 12.011h54.143l6.906 11.962h-61.049c-6.6544 0-12.012 5.3573-12.012 12.012 0 6.6544 5.3573 12.011 12.012 12.011h74.919l6.9634 12.061h-81.883c-6.6544 0-12.012 5.3573-12.012 12.012s5.3573 12.011 12.012 12.011h95.752l6.9588 12.053h-102.71c-6.6544 0-12.012 5.3568-12.012 12.011 0 6.6544 5.3573 12.012 12.012 12.012h116.58l5.934 10.278 0.97668 1.6919h-123.49c-6.6544 0-12.012 5.3573-12.012 12.012s5.3573 12.012 12.012 12.012h144c0.30858 7e-3 0.61791 0 0.9276-0.0161 3e-3 -1.1e-4 5e-3 0 7e-3 0 0.16793-9e-3 0.33591-0.0214 0.50384-0.0377 0.0665-6e-3 0.13277-0.013 0.19897-0.0201 0.0944-0.0106 0.18881-0.0228 0.28318-0.0356 0.14068-0.0188 0.28054-0.04 0.41961-0.0636 0.0111-3e-3 0.0225-4e-3 0.0336-6e-3 5.183-0.89212 9.2067-5.0814 9.8511-10.347 5e-3 -0.0388 0.01-0.0774 0.0145-0.11625 0.014-0.12407 0.0254-0.24898 0.0356-0.37415 7e-3 -0.0854 0.0143-0.17074 0.0196-0.2563 6e-3 -0.0978 0.01-0.19611 0.0135-0.29456 4e-3 -0.10843 7e-3 -0.21694 8e-3 -0.32557 0-0.0396 3e-3 -0.0786 3e-3 -0.11835 0-0.049-3e-3 -0.0973-4e-3 -0.14624-3e-3 -0.10834-4e-3 -0.21659-8e-3 -0.32504-4e-3 -0.10393-0.01-0.20735-0.0161-0.31057-5e-3 -0.0814-0.0117-0.16258-0.0185-0.24392-0.0114-0.13488-0.0246-0.269-0.0403-0.40256-4e-3 -0.0384-0.01-0.0768-0.0146-0.11523-0.2299-1.806-0.85688-3.4835-1.7927-4.9439l-11.101-19.227-60.458-104.72c0-3e-3 -3e-3 -3e-3 -3e-3 -4e-3l-11.373-19.699c-2.1835-3.7819-6.0855-5.9265-10.139-6.0136-0.13491-3e-3 -0.26992-4e-3 -0.40513-3e-3h-7e-3z" filter="url(#filter4909)" style="paint-order:normal"/>
    <path d="m-795.33 319.37c1.816-1.1011 3.95-1.7341 6.2375-1.7342 6.6544 1e-5 12.011 5.3569 12.011 12.011l1.6e-4 22.748c-1e-5 1e-3 1.7e-4 2e-3 -2.3e-4 4e-3l4e-5 98.754 1e-4 22.751c0 6.6544-5.3573 12.012-12.012 12.012-6.6544-2e-5 -12.012-5.3573-12.012-12.012l1.8e-4 -22.751 1.5e-4 -98.755c2.6e-4 -1e-3 2.4e-4 -4e-3 6e-4 -5e-3l-2e-5 -22.746c0-4.3669 2.3069-8.1752 5.7738-10.277z" filter="url(#filter4909)" style="paint-order:normal"/>
   </g>
  </g>
 </g>
</svg>
